# xmcd
#
# Track frame offsets:
#	150
#	18470
#	39658
#	63057
#	79965
#	96301
#	108791
#	120855
#	136549
#	152361
#	171364
#	187081
#	201328
#	224291
#	242908
#	258050
#	261236
#	277496
#
# Disc length: 3977 seconds
#
# Revision: 2
# Processed by: cddbd v1.5.2PL0 Copyright (c) Steve Scherf et al.
# Submitted via: audiograbber 1.83.01
#
DISCID=fc0f8712
DTITLE=Aretha Franklin - Rare and Unreleased Recordings From The Golden Reign Of 
DTITLE=The Queen Of Soul  [CD1)
DYEAR=1900
DGENRE=Oldies
TTITLE0=I Never Loved A Man (The Way I Love You)  
TTITLE1=Dr. Feelgood  
TTITLE2=Sweet Bitter Love  
TTITLE3=It Was You  
TTITLE4=The Letter  
TTITLE5=So Soon  
TTITLE6=Mr. Big  
TTITLE7=Talk To Me, Talk To Me  
TTITLE8=The Fool On The Hill  
TTITLE9=Pledging My Love - The Clock
TTITLE10=You're Taking Up Another Man's Place  
TTITLE11=You Keep Me Hangin' On  
TTITLE12=I'm Trying To Overcome  
TTITLE13=My Way  
TTITLE14=My Cup Runneth Over 
TTITLE15=You're All I Need To Get By  (Take 1)
TTITLE16=You're All I Need To Get By  (Take 2)
TTITLE17=Lean On Me
EXTD=
EXTT0=
EXTT1=
EXTT2=
EXTT3=
EXTT4=
EXTT5=
EXTT6=
EXTT7=
EXTT8=
EXTT9=
EXTT10=
EXTT11=
EXTT12=
EXTT13=
EXTT14=
EXTT15=
EXTT16=
EXTT17=
PLAYORDER=
